<svg id="visual" viewBox="0 0 450 900" width="450" height="900" xmlns="http://www.w3.org/2000/svg" xmlns:xlink="http://www.w3.org/1999/xlink" version="1.1"><rect x="0" y="0" width="450" height="900" fill="#ffffff"></rect><defs><linearGradient id="grad1_0" x1="0%" y1="0%" x2="100%" y2="100%"><stop offset="30%" stop-color="#ffffff" stop-opacity="1"></stop><stop offset="70%" stop-color="#ffffff" stop-opacity="1"></stop></linearGradient></defs><defs><linearGradient id="grad2_0" x1="0%" y1="0%" x2="100%" y2="100%"><stop offset="30%" stop-color="#ffffff" stop-opacity="1"></stop><stop offset="70%" stop-color="#ffffff" stop-opacity="1"></stop></linearGradient></defs><g transform="translate(450, 0)"><path d="M0 202.5C-22.9 191.2 -45.7 179.8 -71.2 171.8C-96.6 163.8 -124.6 159.2 -143.2 143.2C-161.8 127.2 -170.9 100 -179.2 74.2C-187.5 48.5 -195 24.2 -202.5 0L0 0Z" fill="#274776"></path></g><g transform="translate(0, 900)"><path d="M0 -202.5C26.2 -197.5 52.3 -192.5 75.4 -182C98.4 -171.5 118.4 -155.6 137.9 -137.9C157.4 -120.2 176.4 -100.8 187.1 -77.5C197.8 -54.2 200.1 -27.1 202.5 0L0 0Z" fill="#274776"></path></g></svg>