<svg id="visual" viewBox="0 0 1440 1024" width="1440" height="1024" xmlns="http://www.w3.org/2000/svg" xmlns:xlink="http://www.w3.org/1999/xlink" version="1.1"><rect x="0" y="0" width="1440" height="1024" fill="#ffffff"></rect><defs><linearGradient id="grad1_0" x1="28.9%" y1="0%" x2="100%" y2="100%"><stop offset="21.875%" stop-color="#ffffff" stop-opacity="1"></stop><stop offset="78.125%" stop-color="#ffffff" stop-opacity="1"></stop></linearGradient></defs><defs><linearGradient id="grad2_0" x1="0%" y1="0%" x2="71.1%" y2="100%"><stop offset="21.875%" stop-color="#ffffff" stop-opacity="1"></stop><stop offset="78.125%" stop-color="#ffffff" stop-opacity="1"></stop></linearGradient></defs><g transform="translate(1440, 0)"><path d="M0 397.6C-52.9 392.7 -105.8 387.9 -152.1 367.3C-198.5 346.7 -238.4 310.4 -271.5 271.5C-304.7 232.6 -331.2 191.1 -351.1 145.4C-371 99.7 -384.3 49.9 -397.6 0L0 0Z" fill="#274776"></path></g><g transform="translate(0, 1024)"><path d="M0 -397.6C51.1 -388.4 102.2 -379.2 149.2 -360.3C196.3 -341.4 239.2 -312.7 277.2 -277.2C315.1 -241.7 348.1 -199.5 367.3 -152.1C386.5 -104.8 392.1 -52.4 397.6 0L0 0Z" fill="#274776"></path></g></svg>