<svg id="visual" viewBox="0 0 1440 1024" width="1440" height="1024" xmlns="http://www.w3.org/2000/svg" xmlns:xlink="http://www.w3.org/1999/xlink" version="1.1"><rect x="0" y="0" width="1440" height="1024" fill="#ffffff"></rect><defs><linearGradient id="grad1_0" x1="28.9%" y1="0%" x2="100%" y2="100%"><stop offset="21.875%" stop-color="#ffffff" stop-opacity="1"></stop><stop offset="78.125%" stop-color="#ffffff" stop-opacity="1"></stop></linearGradient></defs><defs><linearGradient id="grad2_0" x1="0%" y1="0%" x2="71.1%" y2="100%"><stop offset="21.875%" stop-color="#ffffff" stop-opacity="1"></stop><stop offset="78.125%" stop-color="#ffffff" stop-opacity="1"></stop></linearGradient></defs><g transform="translate(1440, 0)"><path d="M0 397.6C-40.6 389.1 -81.2 380.7 -119.6 368.1C-157.9 355.5 -194 338.7 -230.4 317.1C-266.8 295.5 -303.5 269.1 -321.6 233.7C-339.8 198.3 -339.5 153.9 -349 113.4C-358.6 73 -378.1 36.5 -397.6 0L0 0Z" fill="#274776"></path></g><g transform="translate(0, 1024)"><path d="M0 -397.6C42.6 -395.9 85.2 -394.3 122.9 -378.1C160.5 -361.9 193.1 -331.2 216.9 -298.5C240.7 -265.8 255.6 -231.2 276.7 -201C297.8 -170.9 325 -145.2 346.2 -112.5C367.4 -79.7 382.5 -39.9 397.6 0L0 0Z" fill="#274776"></path></g></svg>