<svg id="visual" viewBox="0 0 675 900" width="675" height="900" xmlns="http://www.w3.org/2000/svg" xmlns:xlink="http://www.w3.org/1999/xlink" version="1.1"><rect x="0" y="0" width="675" height="900" fill="#ffffff"></rect><defs><linearGradient id="grad1_0" x1="0%" y1="0%" x2="100%" y2="100%"><stop offset="30%" stop-color="#ffffff" stop-opacity="1"></stop><stop offset="70%" stop-color="#ffffff" stop-opacity="1"></stop></linearGradient></defs><defs><linearGradient id="grad2_0" x1="0%" y1="0%" x2="100%" y2="100%"><stop offset="30%" stop-color="#ffffff" stop-opacity="1"></stop><stop offset="70%" stop-color="#ffffff" stop-opacity="1"></stop></linearGradient></defs><g transform="translate(675, 0)"><path d="M0 253.1C-34.2 250.4 -68.4 247.7 -96.9 233.9C-125.4 220 -148.1 195.1 -171.1 171.1C-194.1 147.1 -217.3 124 -231 95.7C-244.7 67.3 -248.9 33.7 -253.1 0L0 0Z" fill="#081F41"></path></g><g transform="translate(0, 900)"><path d="M0 -253.1C34.2 -250.8 68.4 -248.4 96.9 -233.9C125.3 -219.3 148.1 -192.6 166.9 -166.9C185.7 -141.2 200.6 -116.4 214.3 -88.8C228.1 -61.1 240.6 -30.6 253.1 0L0 0Z" fill="#081F41"></path></g></svg>