<svg id="visual" viewBox="0 0 1440 1024" width="1440" height="1024" xmlns="http://www.w3.org/2000/svg" xmlns:xlink="http://www.w3.org/1999/xlink" version="1.1"><rect x="0" y="0" width="1440" height="1024" fill="#ffffff"></rect><defs><linearGradient id="grad1_0" x1="28.9%" y1="0%" x2="100%" y2="100%"><stop offset="21.875%" stop-color="#ffffff" stop-opacity="1"></stop><stop offset="78.125%" stop-color="#ffffff" stop-opacity="1"></stop></linearGradient></defs><defs><linearGradient id="grad2_0" x1="0%" y1="0%" x2="71.1%" y2="100%"><stop offset="21.875%" stop-color="#ffffff" stop-opacity="1"></stop><stop offset="78.125%" stop-color="#ffffff" stop-opacity="1"></stop></linearGradient></defs><g transform="translate(1440, 0)"><path d="M0 427C-52 413.6 -104.1 400.2 -159.2 384.3C-214.3 368.5 -272.6 350.3 -312.4 312.4C-352.1 274.4 -373.4 216.8 -389.9 161.5C-406.4 106.2 -418.2 53.1 -430 0L0 0Z" fill="#081f41"></path></g><g transform="translate(0, 1024)"><path d="M0 -441.7C50.8 -418.8 101.7 -396 156.5 -377.9C211.3 -359.8 270.2 -346.5 310.4 -310.4C350.7 -274.3 372.3 -215.5 386.2 -160C400 -104.4 406 -52.2 412 0L0 0Z" fill="#081f41"></path></g></svg>